<svg width="21" height="20" viewBox="0 0 21 20" fill="none" xmlns="http://www.w3.org/2000/svg">
<path d="M5.89148 13.8751V14.3751H6.39148H8.29979H8.79979V13.8751V9.91679V9.41679H8.29979H6.71647C6.27376 9.41679 5.89148 9.77392 5.89148 10.2418V13.8751ZM8.92479 14.6251H5.76648C5.73633 14.6251 5.70505 14.6128 5.67941 14.5872C5.65376 14.5615 5.64148 14.5303 5.64148 14.5001V10.2335C5.64148 9.64292 6.12595 9.15845 6.71647 9.15845H8.92479C8.95494 9.15845 8.98622 9.17073 9.01187 9.19638C9.03751 9.22202 9.04979 9.2533 9.04979 9.28345V14.4918C9.04979 14.57 8.98602 14.6251 8.92479 14.6251Z" fill="currentColor" stroke="currentColor"/>
<path d="M11.4584 14.375H11.9584V13.875V6.45001C11.9584 6.0073 11.6012 5.625 11.1334 5.625H9.86673C9.42392 5.625 9.04175 5.98228 9.04175 6.45001V13.875V14.375H9.54175H9.55006H11.4584ZM12.0751 14.625H8.91675C8.8866 14.625 8.85532 14.6128 8.82968 14.5871C8.80403 14.5615 8.79175 14.5302 8.79175 14.5V6.45001C8.79175 5.85948 9.27622 5.375 9.86673 5.375H11.1334C11.7239 5.375 12.2084 5.85948 12.2084 6.45001V14.4919C12.2044 14.5715 12.1413 14.625 12.0751 14.625Z" fill="currentColor" stroke="currentColor"/>
<path d="M15.2334 15.125H12.0751C11.7334 15.125 11.4501 14.8416 11.4501 14.5V10.7083C11.4501 10.3666 11.7334 10.0833 12.0751 10.0833H14.2834C15.1501 10.0833 15.8584 10.7916 15.8584 11.6583V14.5C15.8584 14.8416 15.5834 15.125 15.2334 15.125ZM12.7001 13.875H14.6084V11.6583C14.6084 11.4833 14.4667 11.3333 14.2834 11.3333H12.7001V13.875Z" fill="currentColor"/>
<path d="M13 18.9584H7.99996C3.47496 18.9584 1.54163 17.0251 1.54163 12.5001V7.50008C1.54163 2.97508 3.47496 1.04175 7.99996 1.04175H13C17.525 1.04175 19.4583 2.97508 19.4583 7.50008V12.5001C19.4583 17.0251 17.525 18.9584 13 18.9584ZM7.99996 2.29175C4.15829 2.29175 2.79163 3.65841 2.79163 7.50008V12.5001C2.79163 16.3417 4.15829 17.7084 7.99996 17.7084H13C16.8416 17.7084 18.2083 16.3417 18.2083 12.5001V7.50008C18.2083 3.65841 16.8416 2.29175 13 2.29175H7.99996Z" fill="currentColor"/>
</svg>
