<svg width="21" height="20" viewBox="0 0 21 20" fill="none" xmlns="http://www.w3.org/2000/svg">
<path d="M13 18.4584H7.99996C5.79486 18.4584 4.3403 17.9854 3.42747 17.0726C2.51464 16.1597 2.04163 14.7052 2.04163 12.5001V7.50008C2.04163 5.29498 2.51464 3.84042 3.42747 2.92759C4.3403 2.01476 5.79486 1.54175 7.99996 1.54175H12.1666C12.1968 1.54175 12.2281 1.55403 12.2537 1.57968C12.2793 1.60532 12.2916 1.6366 12.2916 1.66675C12.2916 1.6969 12.2793 1.72818 12.2537 1.75382C12.2281 1.77946 12.1968 1.79175 12.1666 1.79175H7.99996C6.04385 1.79175 4.56887 2.13449 3.60161 3.10174C2.63436 4.06899 2.29163 5.54397 2.29163 7.50008V12.5001C2.29163 14.4562 2.63436 15.9312 3.60161 16.8984C4.56887 17.8657 6.04385 18.2084 7.99996 18.2084H13C14.9561 18.2084 16.4311 17.8657 17.3983 16.8984C18.3656 15.9312 18.7083 14.4562 18.7083 12.5001V8.33342C18.7083 8.30327 18.7206 8.27199 18.7462 8.24634C18.7719 8.2207 18.8031 8.20842 18.8333 8.20842C18.8634 8.20842 18.8947 8.2207 18.9204 8.24634C18.946 8.27199 18.9583 8.30327 18.9583 8.33342V12.5001C18.9583 14.7052 18.4853 16.1597 17.5724 17.0726C16.6596 17.9854 15.2051 18.4584 13 18.4584Z" fill="currentColor" stroke="currentColor"/>
<path d="M12.1078 1.55711L12.1149 1.55432L12.1219 1.55131C12.1558 1.5368 12.2104 1.53847 12.2601 1.584L18.9214 8.24529C18.9559 8.27981 18.9659 8.33796 18.9487 8.37811C18.9259 8.43132 18.8793 8.45841 18.8333 8.45841H15.5C14.1209 8.45841 13.2978 8.18669 12.8056 7.69444C12.3133 7.20218 12.0416 6.37917 12.0416 5.00007V1.66674C12.0416 1.64137 12.0494 1.61601 12.0631 1.59522C12.0765 1.57493 12.0927 1.56305 12.1078 1.55711ZM13.1452 2.82152L12.2916 1.96797V3.17507V5.00007C12.2916 6.07541 12.4199 6.94794 12.986 7.51404C13.5521 8.08014 14.4246 8.20841 15.5 8.20841H17.325H18.5321L17.6785 7.35485L13.1452 2.82152Z" fill="currentColor" stroke="currentColor"/>
<path d="M11.3334 11.4583H6.33337C5.99171 11.4583 5.70837 11.1749 5.70837 10.8333C5.70837 10.4916 5.99171 10.2083 6.33337 10.2083H11.3334C11.675 10.2083 11.9584 10.4916 11.9584 10.8333C11.9584 11.1749 11.675 11.4583 11.3334 11.4583Z" fill="currentColor"/>
<path d="M9.66671 14.7917H6.33337C5.99171 14.7917 5.70837 14.5084 5.70837 14.1667C5.70837 13.8251 5.99171 13.5417 6.33337 13.5417H9.66671C10.0084 13.5417 10.2917 13.8251 10.2917 14.1667C10.2917 14.5084 10.0084 14.7917 9.66671 14.7917Z" fill="currentColor"/>
</svg>
