<svg width="21" height="20" viewBox="0 0 21 20" fill="none" xmlns="http://www.w3.org/2000/svg">
<path d="M7.04163 5.62508C7.04163 3.71789 8.59277 2.16675 10.5 2.16675C12.4068 2.16675 13.9578 3.71737 13.9583 5.62412C13.9505 7.49535 12.4917 9.00529 10.6325 9.07508H10.6325H10.6325H10.6325H10.6325H10.6324H10.6324H10.6324H10.6324H10.6323H10.6323H10.6323H10.6323H10.6322H10.6322H10.6322H10.6322H10.6321H10.6321H10.6321H10.6321H10.632H10.632H10.632H10.632H10.6319H10.6319H10.6319H10.6319H10.6318H10.6318H10.6318H10.6317H10.6317H10.6317H10.6317H10.6316H10.6316H10.6316H10.6316H10.6315H10.6315H10.6315H10.6315H10.6314H10.6314H10.6314H10.6314H10.6313H10.6313H10.6313H10.6312H10.6312H10.6312H10.6312H10.6311H10.6311H10.6311H10.6311H10.631H10.631H10.631H10.6309H10.6309H10.6309H10.6309H10.6308H10.6308H10.6308H10.6308H10.6307H10.6307H10.6307H10.6306H10.6306H10.6306H10.6306H10.6305H10.6305H10.6305H10.6304H10.6304H10.6304H10.6304H10.6303H10.6303H10.6303H10.6302H10.6302H10.6302H10.6301H10.6301H10.6301H10.6301H10.63H10.63H10.63H10.6299H10.6299H10.6299H10.6298H10.6298H10.6298H10.6298H10.6297H10.6297H10.6297H10.6296H10.6296H10.6296H10.6295H10.6295H10.6295H10.6294H10.6294H10.6294H10.6293H10.6293H10.6293H10.6292H10.6292H10.6292H10.6291H10.6291H10.6291H10.629H10.629H10.629H10.6289H10.6289H10.6289H10.6288H10.6288H10.6288H10.6287H10.6287H10.6287H10.6286H10.6286H10.6286H10.6285H10.6285H10.6285H10.6284H10.6284H10.6284H10.6283H10.6283H10.6282H10.6282H10.6282H10.6281H10.6281H10.6281H10.628H10.628H10.628H10.6279H10.6279H10.6278H10.6278H10.6278H10.6277H10.6277H10.6276H10.6276H10.6276H10.6275H10.6275H10.6275H10.6274H10.6274H10.6273H10.6273H10.6273H10.6272H10.6272H10.6271H10.6271H10.6271H10.627H10.627H10.6269H10.6269H10.6269H10.6268H10.6268H10.6267H10.6267H10.6266H10.6266H10.6266H10.6265H10.6265H10.6264H10.6264H10.6263H10.6263H10.6263H10.6262H10.6262H10.6261H10.6261H10.626H10.626H10.6259H10.6259H10.6259H10.6258H10.6258H10.6257H10.6257H10.6256H10.6256H10.6255H10.6255H10.6254H10.6254H10.6253H10.6253H10.6252H10.6252H10.6252H10.6251H10.6251H10.625H10.625H10.6249H10.6248H10.6247H10.6246H10.6245H10.6244H10.6243H10.6242H10.6241H10.624H10.6239H10.6238H10.6237H10.6236H10.6235H10.6234H10.6233H10.6232H10.6231H10.623H10.6229H10.6229H10.6228H10.6227H10.6226H10.6225H10.6224H10.6223H10.6222H10.6221H10.622H10.6219H10.6218H10.6217H10.6217H10.6216H10.6215H10.6214H10.6213H10.6212H10.6211H10.621H10.6209H10.6208H10.6207H10.6207H10.6206H10.6205H10.6204H10.6203H10.6202H10.6201H10.62H10.6199H10.6199H10.6198H10.6197H10.6196H10.6195H10.6194H10.6193H10.6192H10.6192H10.6191H10.619H10.6189H10.6188H10.6187H10.6186H10.6185H10.6185H10.6184H10.6183H10.6182H10.6181H10.618H10.6179H10.6179H10.6178H10.6177H10.6176H10.6175H10.6174H10.6174H10.6173H10.6172H10.6171H10.617H10.6169H10.6169H10.6168H10.6167H10.6166H10.6165H10.6164H10.6164H10.6163H10.6162H10.6161C10.5374 9.0664 10.457 9.06743 10.3833 9.07406C8.48247 8.99167 7.04163 7.48278 7.04163 5.62508Z" fill="currentColor" stroke="currentColor"/>
<path d="M6.54535 16.7432L6.54398 16.7423C5.59503 16.1097 5.1333 15.3001 5.1333 14.4833C5.1333 13.6662 5.59541 12.8485 6.55202 12.2079C7.62441 11.4984 9.05595 11.1292 10.5104 11.1292C11.9655 11.1292 13.3925 11.4987 14.456 12.2077C15.4013 12.8379 15.8592 13.6472 15.8666 14.4687C15.8659 15.2935 15.4036 16.1028 14.4542 16.7435C13.3867 17.4601 11.9561 17.8333 10.5 17.8333C9.04369 17.8333 7.61291 17.46 6.54535 16.7432Z" fill="currentColor" stroke="currentColor"/>
</svg>
